<?xml version="1.0" encoding="utf-8"?>
<!-- Generator: Adobe Illustrator 18.1.1, SVG Export Plug-In . SVG Version: 6.00 Build 0)  -->
<svg version="1.1" id="Layer_1" xmlns="http://www.w3.org/2000/svg" xmlns:xlink="http://www.w3.org/1999/xlink" x="0px" y="0px"
	 viewBox="-17.5 -5 185 40" enable-background="new -17.5 -5 185 40" xml:space="preserve">
<g>
	<path d="M-12.3,3.4h1.2V14c0.2-0.3,0.4-0.7,0.8-0.9c1.5-1.5,3.3-2.2,5.4-2.2s4,0.8,5.4,2.2c1.5,1.5,2.2,3.3,2.2,5.4
		S2,22.4,0.6,23.9c-1.5,1.5-3.3,2.2-5.4,2.2s-4-0.8-5.4-2.2c-0.3-0.3-0.6-0.6-0.8-0.9v2.8h-1.2V3.4z M-10.9,17.2v2.7
		c0.2,1.2,0.8,2.2,1.8,3.1c1.2,1.2,2.8,1.9,4.5,1.9s3.2-0.7,4.5-1.9c1.2-1.2,1.9-2.8,1.9-4.4S1.1,15.3-0.1,14
		c-1.2-1.2-2.8-1.9-4.5-1.9s-3.2,0.7-4.5,1.9C-10.2,14.8-10.7,16-10.9,17.2z"/>
	<path d="M7.1,3.4v22.3H5.9V3.4H7.1z"/>
	<path d="M25.2,25.7H24v-2.8c-0.2,0.3-0.6,0.7-0.8,0.9c-1.5,1.5-3.3,2.2-5.4,2.2s-3.9-0.8-5.4-2.2c-1.5-1.5-2.2-3.3-2.2-5.4
		s0.8-4,2.2-5.4c1.5-1.5,3.3-2.2,5.4-2.2s4,0.8,5.4,2.2c0.3,0.3,0.6,0.6,0.8,0.9v-2h1.2V25.7z M23.9,19.7v-2.4
		c-0.2-1.2-0.8-2.3-1.8-3.2c-1.2-1.2-2.8-1.9-4.5-1.9s-3.2,0.7-4.5,1.9c-1.2,1.2-1.9,2.8-1.9,4.5c0,1.8,0.7,3.2,1.9,4.4
		s2.8,1.9,4.5,1.9s3.2-0.7,4.5-1.9C23.1,21.9,23.7,20.9,23.9,19.7z"/>
	<path d="M31.7,18.4c-1.1-0.6-1.8-1.1-2.2-1.4c-0.7-0.7-1-1.4-1-2.3c0-0.9,0.3-1.7,1-2.3c0.7-0.7,1.4-1,2.3-1c0.9,0,1.7,0.3,2.2,0.9
		s0.9,1.2,0.9,2v0.1l-1.1,0.4c-0.1-0.7-0.3-1.2-0.7-1.5c-0.3-0.3-0.8-0.6-1.3-0.6s-1,0.2-1.4,0.6c-0.4,0.4-0.6,0.9-0.6,1.4
		s0.2,1,0.6,1.4c0.2,0.2,0.8,0.6,1.4,1.1c1.2,0.7,2,1.2,2.5,1.8c0.8,0.8,1.2,1.8,1.2,2.9c0,1.1-0.4,2.1-1.2,2.9
		c-0.8,0.8-1.8,1.2-2.9,1.2s-2.1-0.4-2.9-1.2S27.4,23,27.4,22l1.2-0.3c0,0.8,0.3,1.5,0.9,2.1c0.6,0.6,1.2,0.9,2,0.9
		c0.8,0,1.4-0.2,2-0.9s0.9-1.2,0.9-2c0-0.8-0.3-1.4-0.9-2C33.2,19.4,32.6,18.9,31.7,18.4z"/>
	<path d="M40.1,12V6.1h1.2V12h2.8v1.2h-2.8v12.5h-1.2V13.3h-2.8v-1.2h2.8V12z"/>
	<path d="M48,7.4c0.2,0.2,0.3,0.6,0.3,0.9c0,0.3-0.1,0.7-0.3,0.9c-0.2,0.2-0.6,0.3-0.9,0.3c-0.3,0-0.7-0.1-0.9-0.3
		C46,9,45.9,8.7,45.9,8.3c0-0.3,0.1-0.7,0.3-0.9c0.2-0.2,0.6-0.3,0.9-0.3C47.5,7.1,47.8,7.2,48,7.4z M47.8,12v13.7h-1.2V12H47.8z"/>
	<path d="M52.5,15.1v10.6h-1.2V12h1.2v0.9c1.1-1.1,2.4-1.7,4-1.7c1.7,0,3,0.6,4,1.5s1.5,2.3,1.5,3.9v9.2h-1.2v-9.1
		c0-1.2-0.4-2.2-1.2-3c-0.9-0.8-1.9-1.2-3-1.2s-2.1,0.4-3,1.2C53.1,14.1,52.7,14.5,52.5,15.1z"/>
	<path d="M78.3,23c-0.2,0.3-0.4,0.6-0.8,0.9c-1.5,1.5-3.3,2.2-5.4,2.2s-3.9-0.8-5.4-2.2c-1.5-1.5-2.2-3.3-2.2-5.4s0.8-4,2.2-5.4
		c1.5-1.4,3.3-2.2,5.4-2.2s4,0.8,5.4,2.2c0.3,0.3,0.6,0.6,0.8,0.9v-2h1.2v10.6c0,2.1-0.8,3.9-2.2,5.3c-1.5,1.5-3.3,2.2-5.4,2.2
		c-2.1,0-4-0.8-5.4-2.2c-0.3-0.3-0.6-0.7-0.8-1l1.3-0.4c0.1,0.2,0.3,0.3,0.4,0.4c1.2,1.2,2.8,1.9,4.4,1.9c1.8,0,3.2-0.7,4.4-1.9
		C77.5,25.8,78.2,24.5,78.3,23z M78.3,17.2C78.1,16,77.5,15,76.5,14c-1.2-1.2-2.8-1.9-4.5-1.9c-1.8,0-3.2,0.7-4.5,1.9
		c-1.2,1.2-1.9,2.8-1.9,4.5s0.7,3.2,1.9,4.5c1.2,1.2,2.8,1.9,4.5,1.9c1.8,0,3.2-0.7,4.5-1.9c0.9-0.9,1.4-2,1.8-3.1V17.2z"/>
	<path fill="#BE1E2D" d="M83.5,15.1v10.6h-1.2V12h1.2v0.9c1.1-1.1,2.4-1.7,4-1.7c1.7,0,3,0.6,4,1.5c1,1,1.5,2.3,1.5,3.9v9.2h-1.2
		v-9.1c0-1.2-0.4-2.2-1.2-3c-0.9-0.8-1.9-1.2-3-1.2s-2.1,0.4-3,1.2C84,14.1,83.7,14.5,83.5,15.1z"/>
	<path fill="#BE1E2D" d="M96.7,17.7c0,0.2,0,0.4,0,0.7c0,1.8,0.7,3.2,1.9,4.4c1.2,1.2,2.8,1.9,4.5,1.9s3.2-0.7,4.5-1.9
		c0.2-0.2,0.4-0.4,0.6-0.7l1.3,0.4c-0.1,0.2-0.4,0.7-1,1.1c-1.5,1.5-3.3,2.2-5.4,2.2s-3.9-0.8-5.4-2.2c-1.5-1.5-2.2-3.3-2.2-5.4
		s0.8-4,2.2-5.4c1.5-1.5,3.3-2.2,5.4-2.2s4,0.8,5.4,2.2c1.3,1.3,2,2.9,2,4.8H96.7V17.7z M97.1,16.4h12c-0.3-1-0.8-1.8-1.5-2.5
		c-1.2-1.2-2.8-1.9-4.5-1.9c-1.8,0-3.2,0.7-4.5,1.9C97.8,14.7,97.3,15.5,97.1,16.4z"/>
	<path fill="#BE1E2D" d="M128.4,12l-4.6,13.7h-0.8l-3.2-9l-3.2,9h-0.8L111.1,12h1.4l3.6,11.3l3.2-9h0.7l3.2,9l3.6-11.3H128.4z"/>
	<path fill="#BE1E2D" d="M133.4,18.4c-1.1-0.6-1.8-1.1-2.2-1.4c-0.7-0.7-1-1.4-1-2.3c0-0.9,0.3-1.7,1-2.3c0.7-0.7,1.4-1,2.3-1
		c0.9,0,1.7,0.3,2.2,0.9s0.9,1.2,0.9,2v0.1l-1.1,0.4c-0.1-0.7-0.3-1.2-0.7-1.5c-0.3-0.3-0.8-0.6-1.3-0.6c-0.6,0-1,0.2-1.4,0.6
		c-0.4,0.4-0.6,0.9-0.6,1.4s0.2,1,0.6,1.4c0.2,0.2,0.8,0.6,1.4,1.1c1.2,0.7,2,1.2,2.5,1.8c0.8,0.8,1.2,1.8,1.2,2.9
		c0,1.1-0.4,2.1-1.2,2.9c-0.8,0.8-1.8,1.2-2.9,1.2c-1.1,0-2.1-0.4-2.9-1.2s-1.2-1.7-1.2-2.7l1.2-0.3c0,0.8,0.2,1.5,0.9,2.1
		c0.7,0.6,1.2,0.9,2,0.9c0.8,0,1.4-0.2,2-0.9c0.6-0.6,0.9-1.2,0.9-2c0-0.8-0.3-1.4-0.9-2C135,19.4,134.4,18.9,133.4,18.4z"/>
</g>
<rect id="_x3C_Slice_x3E_" x="-5" y="4.8" fill="none" width="142.6" height="26.5"/>
</svg>
